# xmcd
# 
# Track frame offsets:
#     150
#     18135
#     32652
#     44093
#     66103
#     81235
#     92209
#     107643
#     123237
#     134681
#     148148
#     163561
# 
# Disc length: 2342
# 
# Revision: 2
# Processed by: cddbd v1.5.2PL0 Copyright (c) Steve Scherf et al.
# Submitted via: fre:ac v1.0.27
# 
DISCID=a609240c
DTITLE=Molden Resetarits Soyka Wirth - Ho RUGG
DYEAR=2013
DGENRE=Alternative
TTITLE0=Ho Rugg
TTITLE1=Sebdemba
TTITLE2=Malipop
TTITLE3=Drom en Noadn
TTITLE4=Kinda ruggds zaum
TTITLE5=Da Dod
TTITLE6=Da Schnee
TTITLE7=Grizznduaf Zwaadosndzwaa
TTITLE8=Dei Keawal
TTITLE9=Rudschduam
TTITLE10=Da Neisiedla See
TTITLE11=Liad ibas losziagn
EXTD=Austria
EXTT0=
EXTT1=
EXTT2=
EXTT3=
EXTT4=
EXTT5=
EXTT6=
EXTT7=
EXTT8=
EXTT9=
EXTT10=
EXTT11=
PLAYORDER=
